<svg xmlns="http://www.w3.org/2000/svg" viewBox="0 0 289.15 263.02"><defs><style>.cls-1{fill:none;stroke:#303030;stroke-linecap:round;stroke-linejoin:round;stroke-width:26.31px;}.cls-2{fill:#303030;}.cls-3{fill:#00d0be;}</style></defs><g id="Layer_2" data-name="Layer 2"><g id="Layer_1-2" data-name="Layer 1"><path class="cls-1" d="M249.87,131.51a118.29,118.29,0,1,1-72.29-109"/><path class="cls-2" d="M256.87,130l4.32,0a28.12,28.12,0,0,0,28-28.26l-.22-40.77L277.57,61l-.19-36.53a6.09,6.09,0,1,0-12.18.07l.2,36.53L236,61.22l-.2-36.53a6.09,6.09,0,1,0-12.17.07l.19,36.53-11.36.06.22,40.77a28.09,28.09,0,0,0,28.25,27.95l3.83,0"/><circle class="cls-3" cx="82" cy="133.01" r="19.55"/><circle class="cls-3" cx="183.14" cy="133.01" r="19.55"/><circle class="cls-3" cx="132.57" cy="133.01" r="19.55"/></g></g></svg>